<svg xmlns="http://www.w3.org/2000/svg" width="240" height="240" viewBox="0 0 240 240">
  <defs>
    <linearGradient id="bg1" x1="0" y1="0" x2="1" y2="1">
      <stop offset="0%" stop-color="#163d36"/>
      <stop offset="100%" stop-color="#1f6b5f"/>
    </linearGradient>
  </defs>
  <rect width="240" height="240" rx="120" fill="url(#bg1)"/>
  <circle cx="120" cy="92" r="42" fill="#f2c29b"/>
  <path d="M78 88c4-28 20-44 42-44s38 16 42 44c-8-8-22-15-42-15s-34 7-42 15z" fill="#1c1d22"/>
  <path d="M56 210c8-40 36-64 64-64s56 24 64 64" fill="#f7f7f7" opacity="0.95"/>
  <path d="M75 210c6-25 24-46 45-53 21 7 39 28 45 53" fill="#3f5b9c"/>
</svg>