<svg xmlns="http://www.w3.org/2000/svg" width="240" height="240" viewBox="0 0 240 240">
  <defs>
    <linearGradient id="bg2" x1="0" y1="0" x2="1" y2="1">
      <stop offset="0%" stop-color="#27424b"/>
      <stop offset="100%" stop-color="#5c7a83"/>
    </linearGradient>
  </defs>
  <rect width="240" height="240" rx="120" fill="url(#bg2)"/>
  <circle cx="120" cy="92" r="40" fill="#f1c7a2"/>
  <path d="M80 95c0-31 18-53 40-53 23 0 40 22 40 53-9-13-24-22-40-22-15 0-31 9-40 22z" fill="#5b352d"/>
  <path d="M76 65c10-10 25-16 44-16 22 0 38 10 46 25-18-6-36-6-56 0-15 4-25 9-30 16 0-10-1-18-4-25z" fill="#5b352d"/>
  <path d="M52 210c9-41 38-64 68-64s59 23 68 64" fill="#f7f7f7" opacity="0.95"/>
  <path d="M74 210c5-27 24-46 46-54 24 7 40 28 46 54" fill="#1a6a63"/>
</svg>