<svg xmlns="http://www.w3.org/2000/svg" width="240" height="240" viewBox="0 0 240 240">
  <defs>
    <linearGradient id="bg3" x1="0" y1="0" x2="1" y2="1">
      <stop offset="0%" stop-color="#2c3b63"/>
      <stop offset="100%" stop-color="#4a5a8c"/>
    </linearGradient>
  </defs>
  <rect width="240" height="240" rx="120" fill="url(#bg3)"/>
  <circle cx="120" cy="94" r="40" fill="#e8bb94"/>
  <path d="M78 93c1-29 18-49 42-49 21 0 38 13 42 40-7-5-18-8-31-8-23 0-41 7-53 17z" fill="#121721"/>
  <path d="M94 54c7-8 18-12 30-12 22 0 39 13 45 30-13-7-29-10-49-8-14 1-24 4-30 10 0-9 1-15 4-20z" fill="#121721"/>
  <path d="M56 210c8-40 36-63 64-63s56 23 64 63" fill="#f7f7f7" opacity="0.95"/>
  <path d="M76 210c6-25 24-45 44-53 23 7 39 28 44 53" fill="#2f8f7e"/>
</svg>